<svg width="18" height="18" viewBox="0 0 18 18" fill="none" xmlns="http://www.w3.org/2000/svg">
<path d="M6.5 0.833374V2.50004H11.5V0.833374H13.1667V2.50004H16.5C16.9603 2.50004 17.3333 2.87314 17.3333 3.33337V16.6667C17.3333 17.127 16.9603 17.5 16.5 17.5H1.5C1.03977 17.5 0.666668 17.127 0.666668 16.6667V3.33337C0.666668 2.87314 1.03977 2.50004 1.5 2.50004H4.83333V0.833374H6.5ZM15.6667 9.16671H2.33333V15.8334H15.6667V9.16671ZM4.83333 4.16671H2.33333V7.50004H15.6667V4.16671H13.1667V5.83337H11.5V4.16671H6.5V5.83337H4.83333V4.16671Z" fill="#1C6F3F"/>
</svg>
