<svg width="1512" height="349" viewBox="0 0 1512 349" fill="none" xmlns="http://www.w3.org/2000/svg">
<rect width="1512" height="349" fill="#3E3D3D"/>
<path d="M1221.85 180.281C1226.83 185.567 1229.5 191.5 1229.5 201.117C1229.5 218.031 1217.63 233.194 1200.35 240.688L1196.04 234.03C1212.16 225.307 1215.31 213.994 1216.57 206.86C1213.97 208.203 1210.58 208.674 1207.24 208.366C1198.52 207.557 1191.65 200.398 1191.65 191.5C1191.65 182.157 1199.22 174.583 1208.57 174.583C1213.75 174.583 1218.71 176.954 1221.85 180.281ZM1173.51 180.281C1178.49 185.567 1181.17 191.5 1181.17 201.117C1181.17 218.031 1169.29 233.194 1152.02 240.688L1147.7 234.03C1163.82 225.307 1166.98 213.994 1168.23 206.86C1165.64 208.203 1162.24 208.674 1158.91 208.366C1150.19 207.557 1143.32 200.398 1143.32 191.5C1143.32 182.157 1150.89 174.583 1160.23 174.583C1165.42 174.583 1170.38 176.954 1173.51 180.281Z" fill="#4F4C4C"/>
<path d="M806.667 236.667H903.333V246.333H806.667V236.667ZM816.333 198H826V231.833H816.333V198ZM840.5 198H850.167V231.833H840.5V198ZM859.833 198H869.5V231.833H859.833V198ZM884 198H893.667V231.833H884V198ZM806.667 173.833L855 149.667L903.333 173.833V193.167H806.667V173.833ZM816.333 179.808V183.5H893.667V179.808L855 160.474L816.333 179.808ZM855 178.667C852.331 178.667 850.167 176.503 850.167 173.833C850.167 171.164 852.331 169 855 169C857.669 169 859.833 171.164 859.833 173.833C859.833 176.503 857.669 178.667 855 178.667Z" fill="#4F4C4C"/>
<path d="M522.126 169.202L528.961 176.037C542.174 189.25 542.174 210.672 528.961 223.885L527.252 225.594C514.04 238.807 492.617 238.807 479.405 225.594C466.192 212.381 466.192 190.959 479.405 177.746L486.24 184.581C476.802 194.019 476.802 209.321 486.24 218.758C495.678 228.196 510.979 228.196 520.417 218.758L522.126 217.049C531.563 207.612 531.563 192.31 522.126 182.873L515.29 176.037L522.126 169.202ZM554.594 198.252L547.758 191.417C557.196 181.979 557.196 166.678 547.758 157.24C538.321 147.802 523.019 147.802 513.581 157.24L511.873 158.949C502.435 168.386 502.435 183.688 511.873 193.126L518.708 199.961L511.873 206.796L505.037 199.961C491.824 186.748 491.824 165.326 505.037 152.113L506.746 150.405C519.959 137.192 541.381 137.192 554.594 150.405C567.807 163.617 567.807 185.04 554.594 198.252Z" fill="#4F4C4C"/>
<path d="M222.011 144.292L195.654 236.543C194.924 239.097 193.355 239.213 192.188 236.878L170.166 192.834L126.293 175.285C123.829 174.3 123.86 172.825 126.457 171.959L218.707 141.209C221.262 140.358 222.727 141.787 222.011 144.292ZM209.003 154.634L149.925 174.326L177.168 185.224L191.865 214.617L209.003 154.634Z" fill="#4F4C4C"/>
</svg>
